<?xml version="1.0" encoding="UTF-8" standalone="no"?>
<svg
   xmlns:dc="http://purl.org/dc/elements/1.1/"
   xmlns:cc="http://creativecommons.org/ns#"
   xmlns:rdf="http://www.w3.org/1999/02/22-rdf-syntax-ns#"
   xmlns:svg="http://www.w3.org/2000/svg"
   xmlns="http://www.w3.org/2000/svg"
   xmlns:sodipodi="http://sodipodi.sourceforge.net/DTD/sodipodi-0.dtd"
   xmlns:inkscape="http://www.inkscape.org/namespaces/inkscape"
   aria-hidden="true"
   focusable="false"
   data-prefix="fas"
   data-icon="plus-square"
   class="svg-inline--fa fa-plus-square fa-w-14"
   role="img"
   viewBox="0 0 448 512"
   version="1.1"
   id="svg3725"
   sodipodi:docname="plus-square-solid.svg"
   inkscape:version="0.92.5 (2060ec1f9f, 2020-04-08)">
  <metadata
     id="metadata3731">
    <rdf:RDF>
      <cc:Work
         rdf:about="">
        <dc:format>image/svg+xml</dc:format>
        <dc:type
           rdf:resource="http://purl.org/dc/dcmitype/StillImage" />
      </cc:Work>
    </rdf:RDF>
  </metadata>
  <defs
     id="defs3729" />
  <sodipodi:namedview
     pagecolor="#ffffff"
     bordercolor="#666666"
     borderopacity="1"
     objecttolerance="10"
     gridtolerance="10"
     guidetolerance="10"
     inkscape:pageopacity="0"
     inkscape:pageshadow="2"
     inkscape:window-width="2560"
     inkscape:window-height="1017"
     id="namedview3727"
     showgrid="false"
     inkscape:zoom="0.828125"
     inkscape:cx="333.1299"
     inkscape:cy="270.73268"
     inkscape:window-x="1912"
     inkscape:window-y="1072"
     inkscape:window-maximized="1"
     inkscape:current-layer="svg3725" />
  <path
     fill="currentColor"
     d="M400 32H48C21.5 32 0 53.5 0 80v352c0 26.5 21.5 48 48 48h352c26.5 0 48-21.5 48-48V80c0-26.5-21.5-48-48-48zm-32 252c0 6.6-5.4 12-12 12h-92v92c0 6.6-5.4 12-12 12h-56c-6.6 0-12-5.4-12-12v-92H92c-6.6 0-12-5.4-12-12v-56c0-6.6 5.4-12 12-12h92v-92c0-6.6 5.4-12 12-12h56c6.6 0 12 5.4 12 12v92h92c6.6 0 12 5.4 12 12v56z"
     id="path3723" />
  <path
     style="fill:#81d5f4;stroke:#81d5f4;stroke-width:1.208;fill-opacity:1;stroke-miterlimit:4;stroke-dasharray:none;stroke-opacity:1"
     d="M 40.034615,478.63443 C 25.214017,476.13752 11.742291,465.6107 4.9102838,451.18822 L 1.054425,443.04845 0.68196103,260.10505 C 0.40292598,123.05117 0.66631351,75.495701 1.7319836,70.520148 4.8296981,56.057091 14.531671,43.670801 27.903796,37.107185 l 6.96195,-3.417226 186.507024,-0.316965 c 207.09016,-0.351946 192.8342,-0.896199 205.33784,7.839225 8.70703,6.082994 15.20821,14.842594 18.16682,24.47774 2.37019,7.718835 2.4048,10.924308 2.08604,193.207551 l -0.32414,185.35849 -3.89349,7.95667 c -6.68308,13.65741 -19.7644,23.58635 -34.71647,26.35039 -8.40344,1.55347 -358.794317,1.62141 -367.994755,0.0714 z m 220.321505,-81.9765 3.94359,-3.52259 0.34159,-48.40194 0.3416,-48.40193 h 47.63936 47.63935 l 3.94357,-3.52359 3.94358,-3.52358 v -33.27916 -33.27917 l -3.34709,-3.34819 -3.34709,-3.3482 -48.23594,-0.34149 -48.23594,-0.3415 -0.3415,-48.36233 -0.34149,-48.36233 -3.94359,-3.52259 -3.94357,-3.52259 h -32.67761 -32.67762 l -3.52974,3.52976 -3.52976,3.52975 v 48.39478 48.39477 h -47.01573 c -26.957,0 -48.310286,0.49219 -50.050051,1.15365 -6.807848,2.58833 -7.351527,5.16198 -7.779675,36.82716 -0.426323,31.53025 0.220131,36.3589 5.414727,40.44497 3.060359,2.40728 4.561933,2.47988 51.291689,2.47988 h 48.13904 v 48.39477 48.39478 l 3.52976,3.52975 3.52974,3.52976 h 32.67762 32.67761 z"
     id="path3741"
     inkscape:connector-curvature="0" />
  <path
     style="fill:#280b0b;fill-opacity:1;stroke:#81d5f4;stroke-width:1.45871687;stroke-miterlimit:4;stroke-dasharray:none;stroke-opacity:1"
     d="M 61.007452,479.05182 C 60.88479,478.92913 55.734394,478.71777 49.562131,478.5821 43.389867,478.44643 36.60722,477.70285 34.489584,476.92968 20.266047,471.73656 11.158385,463.73692 4.537944,450.6219 L 0.99756454,443.60845 1.3850436,256.76241 C 1.5981571,153.99709 2.0722726,69.101282 2.4386337,68.105056 2.8049947,67.108829 3.4981867,65.206943 3.9790603,63.878641 8.0127278,52.73657 15.104939,44.506441 26.225743,38.062562 l 8.036232,-4.656543 184.150945,0.431146 c 172.69954,0.404335 191.75182,0.612873 199.09372,2.179186 6.07027,1.295027 17.9203,11.500897 22.57409,19.441999 6.80223,11.607108 6.46396,1.089079 6.53594,203.22682 l 0.0664,186.46807 -4.17844,7.47175 c -6.25096,11.17777 -19.26687,22.24706 -28.61011,24.33128 -1.25073,0.279 -3.49669,0.81833 -4.99103,1.1985 -2.35802,0.5999 -347.303815,1.48934 -347.896036,0.89705 z m 199.669618,-82.78219 4.22641,-3.84009 -0.13115,-48.04904 -0.13115,-48.04903 47.82927,-0.0354 47.82926,-0.0354 3.92453,-3.57022 3.92453,-3.57023 v -32.99864 -32.99865 l -3.32076,-3.17499 -3.32075,-3.17499 -48.43244,-0.85824 -48.43244,-0.85824 0.13056,-47.86436 0.13054,-47.8644 -4.22641,-3.8401 -4.22642,-3.8401 -32.53769,-0.0354 -32.5377,-0.0354 -3.38683,3.24479 -3.38683,3.24479 v 48.67974 48.67974 l -39.54717,0.17278 c -60.585402,0.26467 -61.215108,0.31843 -63.143397,5.39021 -3.2929,8.66099 -4.223553,54.6298 -1.319765,65.18865 2.736281,9.94974 0.228004,9.4971 55.230662,9.96679 l 48.77967,0.41654 v 48.42304 48.42304 l 3.24479,3.38684 3.24478,3.38683 32.67974,-0.0354 32.67974,-0.0354 4.22642,-3.8401 z"
     id="path821"
     inkscape:connector-curvature="0" />
</svg>
